<svg xmlns="http://www.w3.org/2000/svg" xmlns:xlink="http://www.w3.org/1999/xlink" width="36" height="72"><path fill="red" stroke="black" d="M26.47 42.89L32.52 42.89L32.52 42.89Q30.94 61.10 18.28 61.10L18.28 61.10L18.28 61.10Q10.86 61.10 6.82 53.40L6.82 53.40L6.82 53.40Q3.30 46.65 3.30 34.56L3.30 34.56L3.30 34.56Q3.30 22.22 7.21 14.98L7.21 14.98L7.21 14.98Q11.07 7.84 18.28 7.84L18.28 7.84L18.28 7.84Q29.85 7.84 32.10 23.70L32.10 23.70L26.19 23.70L26.19 23.70Q24.68 13.25 18.28 13.25L18.28 13.25L18.28 13.25Q9.49 13.25 9.49 34.56L9.49 34.56L9.49 34.56Q9.49 55.69 18.35 55.69L18.35 55.69L18.35 55.69Q25.84 55.69 26.47 42.89L26.47 42.89Z"/></svg>