<svg xmlns="http://www.w3.org/2000/svg" xmlns:xlink="http://www.w3.org/1999/xlink" width="36" height="72"><path fill="red" stroke="black" d="M15.33 59.70L1.93 59.70L1.93 54.35L6.05 54.35L6.05 14.63L1.93 14.63L1.93 9.28L14.98 9.28L14.98 9.28Q23.55 9.28 28.16 15.26L28.16 15.26L28.16 15.26Q32.70 21.13 32.70 33.68L32.70 33.68L32.70 33.68Q32.70 46.69 28.51 52.77L28.51 52.77L28.51 52.77Q23.77 59.70 15.33 59.70L15.33 59.70ZM14.70 14.63L11.81 14.63L11.81 54.35L15.12 54.35L15.12 54.35Q26.79 54.35 26.79 33.68L26.79 33.68L26.79 33.68Q26.79 23.41 23.45 18.77L23.45 18.77L23.45 18.77Q20.50 14.63 14.70 14.63L14.70 14.63Z"/></svg>