<svg xmlns="http://www.w3.org/2000/svg" xmlns:xlink="http://www.w3.org/1999/xlink" width="36" height="72"><path fill="red" stroke="black" d="M5.03 59.70L5.03 9.28L17.65 9.28L17.65 9.28Q23.87 9.28 27.74 12.16L27.74 12.16L27.74 12.16Q32.84 16.10 32.84 23.48L32.84 23.48L32.84 23.48Q32.84 32.38 25.63 36.25L25.63 36.25L25.63 36.25Q22.22 38.11 17.79 38.11L17.79 38.11L10.79 38.11L10.79 59.70L5.03 59.70ZM17.19 14.77L10.79 14.77L10.79 32.63L17.19 32.63L17.19 32.63Q26.93 32.63 26.93 23.55L26.93 23.55L26.93 23.55Q26.93 18.25 22.61 16.00L22.61 16.00L22.61 16.00Q20.29 14.77 17.19 14.77L17.19 14.77Z"/></svg>